# xmcd CD database file
#
# Track frame offsets:
#	150
#	18561
#	38369
#	55019
#	70687
#	86594
#	99518
#	114472
#	127687
#	139851
#	155603
#	170195
#
# Disc length: 2479 seconds
#
# Revision: 0
# Processed by: cddbd v1.4PL0 Copyright (c) Steve Scherf et al.
# Submitted via: CDex 1.40Beta9
#
DISCID=9409ad0c
DTITLE=Buddy Jewell - One In A Row
DYEAR=2001
DGENRE=Country
TTITLE0=Abilene On her Mind
TTITLE1=The Whiskey and The Wind
TTITLE2=Lacey's Song
TTITLE3=Through The Eyes Of A Fool
TTITLE4=One In A Row
TTITLE5=Mail Myself To Mexico
TTITLE6=That'll Never Happen To Us
TTITLE7=Any Other Woman
TTITLE8=Left At The Light
TTITLE9=Addicted To The Rain
TTITLE10=Wichita Falls Woman
TTITLE11=Happiness Is An Inside Job
EXTD=YEAR: 2001 ID3G: 2
EXTT0=
EXTT1=
EXTT2=
EXTT3=
EXTT4=
EXTT5=
EXTT6=
EXTT7=
EXTT8=
EXTT9=
EXTT10=
EXTT11=
PLAYORDER=
